<svg fill="none" height="20" viewBox="0 0 20 20" width="20" xmlns="http://www.w3.org/2000/svg"><path d="m14.1665 2.50016h3.3333c.2211 0 .433.0878.5893.24408s.2441.36824.2441.58926v13.3333c0 .221-.0878.433-.2441.5893s-.3682.2441-.5893.2441h-14.99996c-.22102 0-.43298-.0878-.58926-.2441s-.24408-.3683-.24408-.5893v-13.3333c0-.22102.0878-.43298.24408-.58926s.36824-.24408.58926-.24408h3.33333v-1.666664h1.66667v1.666664h4.99996v-1.666664h1.6667zm-1.6667 1.66667h-4.99996v1.66667h-1.66667v-1.66667h-2.5v3.33333h13.33333v-3.33333h-2.5v1.66667h-1.6667zm4.1667 5h-13.33333v6.66667h13.33333z" fill="#2d3748"/></svg>