<svg fill="none" height="24" viewBox="0 0 24 24" width="24" xmlns="http://www.w3.org/2000/svg"><path d="m1.18091 12c.94-5.12 5.427-9 10.81899-9 5.392 0 9.878 3.88 10.819 9-.94 5.12-5.427 9-10.819 9-5.39199 0-9.87799-3.88-10.81899-9zm10.81899 5c1.3261 0 2.5979-.5268 3.5355-1.4645.9377-.9376 1.4645-2.2094 1.4645-3.5355s-.5268-2.59785-1.4645-3.53553c-.9376-.93769-2.2094-1.46447-3.5355-1.46447s-2.59784.52678-3.53553 1.46447c-.93768.93768-1.46446 2.20943-1.46446 3.53553s.52678 2.5979 1.46446 3.5355c.93769.9377 2.20943 1.4645 3.53553 1.4645zm0-2c-.7956 0-1.5587-.3161-2.12131-.8787s-.87868-1.3257-.87868-2.1213.31607-1.5587.87868-2.12132c.56261-.56261 1.32571-.87868 2.12131-.87868.7957 0 1.5587.31607 2.1213.87868.5626.56262.8787 1.32572.8787 2.12132s-.3161 1.5587-.8787 2.1213-1.3256.8787-2.1213.8787z" fill="#2d3748"/></svg>