<svg fill="none" height="32" viewBox="0 0 32 32" width="32" xmlns="http://www.w3.org/2000/svg"><g clip-rule="evenodd" fill-rule="evenodd"><path d="m0 16c0-8.83656 7.16344-16 16-16 8.8366 0 16 7.16344 16 16 0 8.8366-7.1634 16-16 16-8.83656 0-16-7.1634-16-16z" fill="#fff"/><path d="m15.9994 7.00438c2.754 0 4.6117 1.18958 5.6709 2.18361l4.1391-4.04131c-2.5421-2.36287-5.8502-3.81318-9.81-3.81318-5.7361 0-10.68994 3.29172-13.10169 8.08263l4.74203 3.68277c1.18958-3.53611 4.48126-6.09452 8.35966-6.09452z" fill="#ea4335"/><path d="m30.0789 16.3255c0-1.2058-.0977-2.0858-.3096-2.9984h-13.7698v5.4428h8.0827c-.163 1.3525-1.043 3.3895-2.9984 4.7583l4.6279 3.5851c2.7703-2.5585 4.3672-6.3227 4.3672-10.7878z" fill="#4285f4"/><path d="m7.65609 18.9015c-.30962-.9125-.48887-1.8902-.48887-2.9006 0-1.0103.17925-1.988.47257-2.9006l-4.74203-3.68282c-.99404 1.98802-1.56439 4.22062-1.56439 6.58342 0 2.3629.57035 4.5954 1.56439 6.5835z" fill="#fbbc05"/><path d="m15.9995 30.6673c3.9598 0 7.2841-1.3036 9.7122-3.5524l-4.628-3.5851c-1.2385.8637-2.9006 1.4666-5.0842 1.4666-3.8784 0-7.17012-2.5584-8.34341-6.0945l-4.74203 3.6828c2.41176 4.7909 7.34934 8.0826 13.08544 8.0826z" fill="#34a853"/></g></svg>