<svg fill="none" height="20" viewBox="0 0 20 20" width="20" xmlns="http://www.w3.org/2000/svg"><g stroke="#2d3748" stroke-linecap="round" stroke-linejoin="round" stroke-width="1.5"><path d="m15.1171 18.0167c-.7333.2167-1.6.3167-2.6166.3167h-5.00005c-1.01666 0-1.88333-.1-2.61666-.3167.18333-2.1666 2.40833-3.875 5.11671-3.875 2.7083 0 4.9333 1.7084 5.1166 3.875z"/><path d="m12.5003 1.66663h-4.99997c-4.16667 0-5.83334 1.66666-5.83334 5.83333v5.00004c0 3.15.95 4.875 3.21667 5.5166.18333-2.1666 2.40833-3.875 5.11664-3.875 2.7084 0 4.9334 1.7084 5.1167 3.875 2.2667-.6416 3.2167-2.3666 3.2167-5.5166v-5.00004c0-4.16667-1.6667-5.83333-5.8334-5.83333zm-2.5 10.14167c-1.64997 0-2.98331-1.3417-2.98331-2.99166 0-1.65 1.33334-2.98335 2.98331-2.98335 1.65 0 2.9834 1.33335 2.9834 2.98335 0 1.64996-1.3334 2.99166-2.9834 2.99166z"/><path d="m12.9833 8.81672c0 1.64998-1.3334 2.99168-2.98336 2.99168-1.65 0-2.98334-1.3417-2.98334-2.99168 0-1.65 1.33334-2.98335 2.98334-2.98335 1.64996 0 2.98336 1.33335 2.98336 2.98335z"/></g></svg>