<svg fill="none" height="32" viewBox="0 0 32 32" width="32" xmlns="http://www.w3.org/2000/svg"><path d="m19.3334 12h3.3333v1.3334h-1.3333v8.6666c0 .1769-.0703.3464-.1953.4714-.125.1251-.2946.1953-.4714.1953h-9.3333c-.1768 0-.3464-.0702-.4714-.1953-.1251-.125-.1953-.2945-.1953-.4714v-8.6666h-1.33333v-1.3334h3.33333v-2c0-.17677.0702-.34634.1953-.47136.125-.12503.2946-.19527.4714-.19527h5.3333c.1768 0 .3464.07024.4714.19527.125.12502.1953.29459.1953.47136zm-5.3334 3.3334v4h1.3334v-4zm2.6667 0v4h1.3333v-4zm-2.6667-4.6667v1.3333h4v-1.3333z" fill="#e53e3e"/></svg>