<svg fill="none" height="20" viewBox="0 0 20 20" width="20" xmlns="http://www.w3.org/2000/svg"><path d="m10.0002 6.66659c.9166 0 1.6666-.75 1.6666-1.66667s-.75-1.66667-1.6666-1.66667c-.9167 0-1.6667.75-1.6667 1.66667s.75 1.66667 1.6667 1.66667zm0 1.66666c-.9167 0-1.6667.75-1.6667 1.66667 0 .91668.75 1.66668 1.6667 1.66668.9166 0 1.6666-.75 1.6666-1.66668 0-.91667-.75-1.66667-1.6666-1.66667zm0 5.00005c-.9167 0-1.6667.75-1.6667 1.6666 0 .9167.75 1.6667 1.6667 1.6667.9166 0 1.6666-.75 1.6666-1.6667 0-.9166-.75-1.6666-1.6666-1.6666z" fill="#4a5568"/></svg>