<svg height="256" viewBox="0 0 256 256" width="256" xmlns="http://www.w3.org/2000/svg"><path d="m45.002 75.502c2.862 0 5.72.684 8.326 2.051l19.485 10.243-3.721-21.678c-1.002-5.815.926-11.753 5.164-15.877l15.744-15.346-21.768-3.161c-5.838-.85-10.884-4.514-13.499-9.806l-9.735-19.723-9.73 19.717c-2.615 5.292-7.661 8.962-13.499 9.811l-21.769 3.162 15.749 15.355c4.224 4.111 6.156 10.044 5.16 15.863l-3.721 21.682 19.466-10.238c2.614-1.367 5.481-2.055 8.348-2.055z" fill="#ffcf64" transform="matrix(2.81 0 0 2.81 1.406593 1.406593)"/></svg>